<?xml version="1.0" standalone="no"?>
<!DOCTYPE svg PUBLIC "-//W3C//DTD SVG 1.1//EN" "http://www.w3.org/Graphics/SVG/1.1/DTD/svg11.dtd">
<svg width="264mm" height="169mm" viewBox="-264 -169 264 169" xmlns="http://www.w3.org/2000/svg" version="1.1">
<title>OpenSCAD Model</title>
<path d="
M -19.05,-112.183 L -19.05,-158.75 L -52.705,-158.75 L -52.705,-168.275 L -105.41,-168.275 L -105.41,-158.75
 L -158.115,-158.75 L -158.115,-168.275 L -210.82,-168.275 L -210.82,-158.75 L -245.475,-158.75 L -245.475,-112.183
 L -263.525,-112.183 L -263.525,-56.0917 L -245.475,-56.0917 L -245.475,-8.52499 L -210.82,-8.52499 L -210.82,-0
 L -158.115,-0 L -158.115,-8.52499 L -105.41,-8.52499 L -105.41,-0 L -52.705,-0 L -52.705,-8.52499
 L -19.05,-8.52499 L -19.05,-56.0917 L 0,-56.0917 L 0,-112.183 z
M -259.692,-83.4903 L -260.633,-83.4903 L -260.923,-84.3847 L -260.163,-84.9375 L -259.402,-84.3847 z
M -183.82,-2.89226 L -184.715,-2.60165 L -185.267,-3.36249 L -184.715,-4.12334 L -183.82,-3.83272 z
M -183.82,-163.442 L -184.715,-163.152 L -185.267,-163.913 L -184.715,-164.673 L -183.82,-164.383 z
M -78.4103,-2.89226 L -79.3047,-2.60165 L -79.8575,-3.36249 L -79.3047,-4.12334 L -78.4103,-3.83272 z
M -78.4103,-163.442 L -79.3047,-163.152 L -79.8575,-163.913 L -79.3047,-164.673 L -78.4103,-164.383 z
M -3.89226,-83.4903 L -4.83272,-83.4903 L -5.12334,-84.3847 L -4.36249,-84.9375 L -3.60165,-84.3847 z
" stroke="red" fill="lightgray" stroke-width="0.5"/>
</svg>
