<?xml version="1.0" standalone="no"?>
<!DOCTYPE svg PUBLIC "-//W3C//DTD SVG 1.1//EN" "http://www.w3.org/Graphics/SVG/1.1/DTD/svg11.dtd">
<svg width="150mm" height="176mm" viewBox="0 -176 150 176" xmlns="http://www.w3.org/2000/svg" version="1.1">
<title>OpenSCAD Model</title>
<path d="
M 149.225,-175.4 L 0,-175.4 L 0,-150 L 149.225,-150 z
M 134.723,-161.832 L 134.723,-163.568 L 136.08,-164.65 L 137.772,-164.264 L 138.525,-162.7 L 137.772,-161.136
 L 136.08,-160.75 z
M 72.8106,-161.832 L 72.8106,-163.568 L 74.1674,-164.65 L 75.8595,-164.264 L 76.6125,-162.7 L 75.8595,-161.136
 L 74.1674,-160.75 z
M 10.8981,-161.832 L 10.8981,-163.568 L 12.2549,-164.65 L 13.947,-164.264 L 14.7,-162.7 L 13.947,-161.136
 L 12.2549,-160.75 z
M 149.225,-145.4 L 0,-145.4 L 0,-120 L 149.225,-120 z
M 134.723,-131.832 L 134.723,-133.568 L 136.08,-134.65 L 137.772,-134.264 L 138.525,-132.7 L 137.772,-131.136
 L 136.08,-130.75 z
M 72.8106,-131.832 L 72.8106,-133.568 L 74.1674,-134.65 L 75.8595,-134.264 L 76.6125,-132.7 L 75.8595,-131.136
 L 74.1674,-130.75 z
M 10.8981,-131.832 L 10.8981,-133.568 L 12.2549,-134.65 L 13.947,-134.264 L 14.7,-132.7 L 13.947,-131.136
 L 12.2549,-130.75 z
M 149.225,-115.4 L 0,-115.4 L 0,-90 L 149.225,-90 z
M 10.8981,-101.832 L 10.8981,-103.568 L 12.2549,-104.65 L 13.947,-104.264 L 14.7,-102.7 L 13.947,-101.136
 L 12.2549,-100.75 z
M 72.8106,-101.832 L 72.8106,-103.568 L 74.1674,-104.65 L 75.8595,-104.264 L 76.6125,-102.7 L 75.8595,-101.136
 L 74.1674,-100.75 z
M 134.723,-101.832 L 134.723,-103.568 L 136.08,-104.65 L 137.772,-104.264 L 138.525,-102.7 L 137.772,-101.136
 L 136.08,-100.75 z
M 149.225,-85.4 L 0,-85.4 L 0,-60 L 149.225,-60 z
M 10.8981,-71.8322 L 10.8981,-73.5678 L 12.2549,-74.6498 L 13.947,-74.2637 L 14.7,-72.7 L 13.947,-71.1363
 L 12.2549,-70.7501 z
M 72.8106,-71.8322 L 72.8106,-73.5678 L 74.1674,-74.6498 L 75.8595,-74.2637 L 76.6125,-72.7 L 75.8595,-71.1363
 L 74.1674,-70.7501 z
M 134.723,-71.8322 L 134.723,-73.5678 L 136.08,-74.6498 L 137.772,-74.2637 L 138.525,-72.7 L 137.772,-71.1363
 L 136.08,-70.7501 z
M 149.225,-55.4 L 0,-55.4 L 0,-30 L 149.225,-30 z
M 134.723,-41.8322 L 134.723,-43.5678 L 136.08,-44.6498 L 137.772,-44.2637 L 138.525,-42.7 L 137.772,-41.1363
 L 136.08,-40.7501 z
M 72.8106,-41.8322 L 72.8106,-43.5678 L 74.1674,-44.6498 L 75.8595,-44.2637 L 76.6125,-42.7 L 75.8595,-41.1363
 L 74.1674,-40.7501 z
M 10.8981,-41.8322 L 10.8981,-43.5678 L 12.2549,-44.6498 L 13.947,-44.2637 L 14.7,-42.7 L 13.947,-41.1363
 L 12.2549,-40.7501 z
M 149.225,-25.4 L 0,-25.4 L 0,-0 L 149.225,-0 z
M 134.723,-11.8322 L 134.723,-13.5678 L 136.08,-14.6498 L 137.772,-14.2637 L 138.525,-12.7 L 137.772,-11.1363
 L 136.08,-10.7501 z
M 72.8106,-11.8322 L 72.8106,-13.5678 L 74.1674,-14.6498 L 75.8595,-14.2637 L 76.6125,-12.7 L 75.8595,-11.1363
 L 74.1674,-10.7501 z
M 10.8981,-11.8322 L 10.8981,-13.5678 L 12.2549,-14.6498 L 13.947,-14.2637 L 14.7,-12.7 L 13.947,-11.1363
 L 12.2549,-10.7501 z
" stroke="red" fill="lightgray" stroke-width="0.5"/>
</svg>
