<?xml version="1.0" standalone="no"?>
<!DOCTYPE svg PUBLIC "-//W3C//DTD SVG 1.1//EN" "http://www.w3.org/Graphics/SVG/1.1/DTD/svg11.dtd">
<svg width="169mm" height="188mm" viewBox="-169 -188 169 188" xmlns="http://www.w3.org/2000/svg" version="1.1">
<title>OpenSCAD Model</title>
<path d="
M -9.52499,-168.275 L -9.52499,-187.325 L -159.75,-187.325 L -159.75,-168.275 L -168.275,-168.275 L -168.275,-126.206
 L -159.75,-126.206 L -159.75,-84.1375 L -168.275,-84.1375 L -168.275,-42.0687 L -159.75,-42.0687 L -159.75,-0
 L -112.183,-0 L -112.183,-8.52499 L -56.0917,-8.52499 L -56.0917,-0 L -9.52499,-0 L -9.52499,-42.0687
 L 0,-42.0687 L 0,-84.1375 L -9.52499,-84.1375 L -9.52499,-126.206 L 0,-126.206 L 0,-168.275
 z
M -164.447,-62.4964 L -165.328,-62.4964 L -165.601,-63.3349 L -164.887,-63.8531 L -164.174,-63.3349 z
M -164.447,-146.634 L -165.328,-146.634 L -165.601,-147.472 L -164.887,-147.991 L -164.174,-147.472 z
M -139.622,-3.69666 L -140.461,-3.42421 L -140.979,-4.1375 L -140.461,-4.8508 L -139.622,-4.57834 z
M -36.5847,-166.874 L -40.8362,-157.325 L -46.9803,-148.868 L -54.7482,-141.874 L -63.8007,-136.648 L -73.7419,-133.418
 L -84.1375,-132.325 L -94.5331,-133.418 L -104.474,-136.648 L -113.527,-141.874 L -121.295,-148.868 L -127.439,-157.325
 L -131.69,-166.874 L -131.786,-167.325 L -36.4889,-167.325 z
M -27.4391,-3.69666 L -28.2776,-3.42421 L -28.7958,-4.1375 L -28.2776,-4.8508 L -27.4391,-4.57834 z
M -3.94666,-62.4964 L -4.82834,-62.4964 L -5.10078,-63.3349 L -4.3875,-63.8531 L -3.67419,-63.3349 z
M -3.94666,-146.634 L -4.82834,-146.634 L -5.10078,-147.472 L -4.3875,-147.991 L -3.67419,-147.472 z
" stroke="red" fill="lightgray" stroke-width="0.5"/>
</svg>
