<?xml version="1.0" standalone="no"?>
<!DOCTYPE svg PUBLIC "-//W3C//DTD SVG 1.1//EN" "http://www.w3.org/Graphics/SVG/1.1/DTD/svg11.dtd">
<svg width="308mm" height="58mm" viewBox="-308 -58 308 58" xmlns="http://www.w3.org/2000/svg" version="1.1">
<title>OpenSCAD Model</title>
<path d="
M -299.45,-38.1 L -307.975,-38.1 L -307.975,-19.05 L -299.45,-19.05 L -299.45,-0 L -9.52499,-0
 L -9.52499,-19.05 L 0,-19.05 L 0,-38.1 L -9.52499,-38.1 L -9.52499,-57.15 L -19.05,-57.15
 L -19.05,-47.625 L -288.925,-47.625 L -288.925,-57.15 L -299.45,-57.15 z
M -304.147,-27.9682 L -305.028,-27.9682 L -305.301,-28.8068 L -304.587,-29.325 L -303.874,-28.8068 z
M -256.039,-14.2216 L -256.878,-13.9492 L -257.396,-14.6625 L -256.878,-15.3758 L -256.039,-15.1033 z
M -102.658,-9.52499 L -205.317,-9.52499 L -205.317,-19.05 L -102.658,-19.05 z
M -50.7224,-14.2216 L -51.5609,-13.9492 L -52.0792,-14.6625 L -51.5609,-15.3758 L -50.7224,-15.1033 z
M -3.94666,-27.9682 L -4.82834,-27.9682 L -5.10078,-28.8068 L -4.3875,-29.325 L -3.67419,-28.8068 z
" stroke="red" fill="lightgray" stroke-width="0.5"/>
</svg>
