<?xml version="1.0" standalone="no"?>
<!DOCTYPE svg PUBLIC "-//W3C//DTD SVG 1.1//EN" "http://www.w3.org/Graphics/SVG/1.1/DTD/svg11.dtd">
<svg width="264mm" height="58mm" viewBox="-264 -58 264 58" xmlns="http://www.w3.org/2000/svg" version="1.1">
<title>OpenSCAD Model</title>
<path d="
M -19.05,-38.1 L 0,-38.1 L 0,-57.15 L -263.525,-57.15 L -263.525,-38.1 L -245.475,-38.1
 L -245.475,-19.05 L -263.525,-19.05 L -263.525,-0 L 0,-0 L 0,-19.05 L -19.05,-19.05
 z
M -259.692,-8.87778 L -260.633,-8.87778 L -260.923,-9.7722 L -260.163,-10.325 L -259.402,-9.7722 z
M -259.692,-46.9778 L -260.633,-46.9778 L -260.923,-47.8722 L -260.163,-48.425 L -259.402,-47.8722 z
M -236.525,-14.2173 L -237.42,-13.9267 L -237.972,-14.6875 L -237.42,-15.4483 L -236.525,-15.1577 z
M -158.115,-9.52499 L -210.82,-9.52499 L -210.82,-19.05 L -158.115,-19.05 z
M -131.115,-14.2173 L -132.01,-13.9267 L -132.562,-14.6875 L -132.01,-15.4483 L -131.115,-15.1577 z
M -52.705,-9.52499 L -105.41,-9.52499 L -105.41,-19.05 L -52.705,-19.05 z
M -25.7053,-14.2173 L -26.5997,-13.9267 L -27.1525,-14.6875 L -26.5997,-15.4483 L -25.7053,-15.1577 z
M -3.89226,-8.87778 L -4.83272,-8.87778 L -5.12334,-9.7722 L -4.36249,-10.325 L -3.60165,-9.7722 z
M -3.89226,-46.9778 L -4.83272,-46.9778 L -5.12334,-47.8722 L -4.36249,-48.425 L -3.60165,-47.8722 z
" stroke="red" fill="lightgray" stroke-width="0.5"/>
</svg>
