<?xml version="1.0" standalone="no"?>
<!DOCTYPE svg PUBLIC "-//W3C//DTD SVG 1.1//EN" "http://www.w3.org/Graphics/SVG/1.1/DTD/svg11.dtd">
<svg width="264mm" height="155mm" viewBox="-264 -308 264 155" xmlns="http://www.w3.org/2000/svg" version="1.1">
<title>OpenSCAD Model</title>
<path d="
M -4.7625,-154.497 L -4.36249,-154.787 L -3.60165,-154.235 L -3.68198,-153.987 L 0,-153.987 L 0,-205.317
 L -19.05,-205.317 L -19.05,-298.45 L -52.705,-298.45 L -52.705,-307.975 L -105.41,-307.975 L -105.41,-298.45
 L -158.115,-298.45 L -158.115,-307.975 L -210.82,-307.975 L -210.82,-298.45 L -245.475,-298.45 L -245.475,-205.317
 L -263.525,-205.317 L -263.525,-153.987 L -260.843,-153.987 L -260.923,-154.235 L -260.163,-154.787 L -259.962,-154.642
 L -259.962,-153.987 L -4.7625,-153.987 z
M -257.892,-179.005 L -258.833,-179.005 L -259.123,-179.899 L -258.362,-180.452 L -257.602,-179.899 z
M -183.82,-303.142 L -184.715,-302.852 L -185.267,-303.613 L -184.715,-304.373 L -183.82,-304.083 z
M -78.4103,-303.142 L -79.3047,-302.852 L -79.8575,-303.613 L -79.3047,-304.373 L -78.4103,-304.083 z
M -3.89226,-179.005 L -4.83272,-179.005 L -5.12334,-179.899 L -4.36249,-180.452 L -3.60165,-179.899 z
" stroke="red" fill="lightgray" stroke-width="0.5"/>
</svg>
