<?xml version="1.0" standalone="no"?>
<!DOCTYPE svg PUBLIC "-//W3C//DTD SVG 1.1//EN" "http://www.w3.org/Graphics/SVG/1.1/DTD/svg11.dtd">
<svg width="289mm" height="176mm" viewBox="0 -176 289 176" xmlns="http://www.w3.org/2000/svg" version="1.1">
<title>OpenSCAD Model</title>
<path d="
M 288.925,-175.4 L 0,-175.4 L 0,-150 L 288.925,-150 z
M 274.423,-161.832 L 274.423,-163.568 L 275.78,-164.65 L 277.472,-164.264 L 278.225,-162.7 L 277.472,-161.136
 L 275.78,-160.75 z
M 214.892,-161.832 L 214.892,-163.568 L 216.249,-164.65 L 217.941,-164.264 L 218.694,-162.7 L 217.941,-161.136
 L 216.249,-160.75 z
M 70.4293,-161.832 L 70.4293,-163.568 L 71.7862,-164.65 L 73.4782,-164.264 L 74.2312,-162.7 L 73.4782,-161.136
 L 71.7862,-160.75 z
M 155.361,-161.832 L 155.361,-163.568 L 156.717,-164.65 L 158.409,-164.264 L 159.162,-162.7 L 158.409,-161.136
 L 156.717,-160.75 z
M 129.961,-161.832 L 129.961,-163.568 L 131.317,-164.65 L 133.009,-164.264 L 133.762,-162.7 L 133.009,-161.136
 L 131.317,-160.75 z
M 10.8981,-161.832 L 10.8981,-163.568 L 12.2549,-164.65 L 13.947,-164.264 L 14.7,-162.7 L 13.947,-161.136
 L 12.2549,-160.75 z
M 288.925,-145.4 L 0,-145.4 L 0,-120 L 288.925,-120 z
M 274.423,-131.832 L 274.423,-133.568 L 275.78,-134.65 L 277.472,-134.264 L 278.225,-132.7 L 277.472,-131.136
 L 275.78,-130.75 z
M 214.892,-131.832 L 214.892,-133.568 L 216.249,-134.65 L 217.941,-134.264 L 218.694,-132.7 L 217.941,-131.136
 L 216.249,-130.75 z
M 70.4293,-131.832 L 70.4293,-133.568 L 71.7862,-134.65 L 73.4782,-134.264 L 74.2312,-132.7 L 73.4782,-131.136
 L 71.7862,-130.75 z
M 155.361,-131.832 L 155.361,-133.568 L 156.717,-134.65 L 158.409,-134.264 L 159.162,-132.7 L 158.409,-131.136
 L 156.717,-130.75 z
M 129.961,-131.832 L 129.961,-133.568 L 131.317,-134.65 L 133.009,-134.264 L 133.762,-132.7 L 133.009,-131.136
 L 131.317,-130.75 z
M 10.8981,-131.832 L 10.8981,-133.568 L 12.2549,-134.65 L 13.947,-134.264 L 14.7,-132.7 L 13.947,-131.136
 L 12.2549,-130.75 z
M 288.925,-115.4 L 0,-115.4 L 0,-90 L 288.925,-90 z
M 274.423,-101.832 L 274.423,-103.568 L 275.78,-104.65 L 277.472,-104.264 L 278.225,-102.7 L 277.472,-101.136
 L 275.78,-100.75 z
M 214.892,-101.832 L 214.892,-103.568 L 216.249,-104.65 L 217.941,-104.264 L 218.694,-102.7 L 217.941,-101.136
 L 216.249,-100.75 z
M 70.4293,-101.832 L 70.4293,-103.568 L 71.7862,-104.65 L 73.4782,-104.264 L 74.2312,-102.7 L 73.4782,-101.136
 L 71.7862,-100.75 z
M 155.361,-101.832 L 155.361,-103.568 L 156.717,-104.65 L 158.409,-104.264 L 159.162,-102.7 L 158.409,-101.136
 L 156.717,-100.75 z
M 129.961,-101.832 L 129.961,-103.568 L 131.317,-104.65 L 133.009,-104.264 L 133.762,-102.7 L 133.009,-101.136
 L 131.317,-100.75 z
M 10.8981,-101.832 L 10.8981,-103.568 L 12.2549,-104.65 L 13.947,-104.264 L 14.7,-102.7 L 13.947,-101.136
 L 12.2549,-100.75 z
M 288.925,-85.4 L 0,-85.4 L 0,-60 L 288.925,-60 z
M 129.961,-71.8322 L 129.961,-73.5678 L 131.317,-74.6498 L 133.009,-74.2637 L 133.762,-72.7 L 133.009,-71.1363
 L 131.317,-70.7501 z
M 274.423,-71.8322 L 274.423,-73.5678 L 275.78,-74.6498 L 277.472,-74.2637 L 278.225,-72.7 L 277.472,-71.1363
 L 275.78,-70.7501 z
M 214.892,-71.8322 L 214.892,-73.5678 L 216.249,-74.6498 L 217.941,-74.2637 L 218.694,-72.7 L 217.941,-71.1363
 L 216.249,-70.7501 z
M 70.4293,-71.8322 L 70.4293,-73.5678 L 71.7862,-74.6498 L 73.4782,-74.2637 L 74.2312,-72.7 L 73.4782,-71.1363
 L 71.7862,-70.7501 z
M 155.361,-71.8322 L 155.361,-73.5678 L 156.717,-74.6498 L 158.409,-74.2637 L 159.162,-72.7 L 158.409,-71.1363
 L 156.717,-70.7501 z
M 10.8981,-71.8322 L 10.8981,-73.5678 L 12.2549,-74.6498 L 13.947,-74.2637 L 14.7,-72.7 L 13.947,-71.1363
 L 12.2549,-70.7501 z
M 288.925,-55.4 L 0,-55.4 L 0,-30 L 288.925,-30 z
M 155.361,-41.8322 L 155.361,-43.5678 L 156.717,-44.6498 L 158.409,-44.2637 L 159.162,-42.7 L 158.409,-41.1363
 L 156.717,-40.7501 z
M 10.8981,-41.8322 L 10.8981,-43.5678 L 12.2549,-44.6498 L 13.947,-44.2637 L 14.7,-42.7 L 13.947,-41.1363
 L 12.2549,-40.7501 z
M 129.961,-41.8322 L 129.961,-43.5678 L 131.317,-44.6498 L 133.009,-44.2637 L 133.762,-42.7 L 133.009,-41.1363
 L 131.317,-40.7501 z
M 70.4293,-41.8322 L 70.4293,-43.5678 L 71.7862,-44.6498 L 73.4782,-44.2637 L 74.2312,-42.7 L 73.4782,-41.1363
 L 71.7862,-40.7501 z
M 214.892,-41.8322 L 214.892,-43.5678 L 216.249,-44.6498 L 217.941,-44.2637 L 218.694,-42.7 L 217.941,-41.1363
 L 216.249,-40.7501 z
M 274.423,-41.8322 L 274.423,-43.5678 L 275.78,-44.6498 L 277.472,-44.2637 L 278.225,-42.7 L 277.472,-41.1363
 L 275.78,-40.7501 z
M 288.925,-25.4 L 0,-25.4 L 0,-0 L 288.925,-0 z
M 274.423,-11.8322 L 274.423,-13.5678 L 275.78,-14.6498 L 277.472,-14.2637 L 278.225,-12.7 L 277.472,-11.1363
 L 275.78,-10.7501 z
M 214.892,-11.8322 L 214.892,-13.5678 L 216.249,-14.6498 L 217.941,-14.2637 L 218.694,-12.7 L 217.941,-11.1363
 L 216.249,-10.7501 z
M 70.4293,-11.8322 L 70.4293,-13.5678 L 71.7862,-14.6498 L 73.4782,-14.2637 L 74.2312,-12.7 L 73.4782,-11.1363
 L 71.7862,-10.7501 z
M 155.361,-11.8322 L 155.361,-13.5678 L 156.717,-14.6498 L 158.409,-14.2637 L 159.162,-12.7 L 158.409,-11.1363
 L 156.717,-10.7501 z
M 129.961,-11.8322 L 129.961,-13.5678 L 131.317,-14.6498 L 133.009,-14.2637 L 133.762,-12.7 L 133.009,-11.1363
 L 131.317,-10.7501 z
M 10.8981,-11.8322 L 10.8981,-13.5678 L 12.2549,-14.6498 L 13.947,-14.2637 L 14.7,-12.7 L 13.947,-11.1363
 L 12.2549,-10.7501 z
" stroke="red" fill="lightgray" stroke-width="0.5"/>
</svg>
