<?xml version="1.0" standalone="no"?>
<!DOCTYPE svg PUBLIC "-//W3C//DTD SVG 1.1//EN" "http://www.w3.org/Graphics/SVG/1.1/DTD/svg11.dtd">
<svg width="308mm" height="188mm" viewBox="-308 -188 308 188" xmlns="http://www.w3.org/2000/svg" version="1.1">
<title>OpenSCAD Model</title>
<path d="
M -9.52499,-168.275 L -9.52499,-187.325 L -19.05,-187.325 L -19.05,-168.275 L -288.925,-168.275 L -288.925,-187.325
 L -299.45,-187.325 L -299.45,-168.275 L -307.975,-168.275 L -307.975,-126.206 L -299.45,-126.206 L -299.45,-84.1375
 L -307.975,-84.1375 L -307.975,-42.0687 L -299.45,-42.0687 L -299.45,-0 L -205.317,-0 L -205.317,-8.52499
 L -102.658,-8.52499 L -102.658,-0 L -9.52499,-0 L -9.52499,-42.0687 L 0,-42.0687 L 0,-84.1375
 L -9.52499,-84.1375 L -9.52499,-126.206 L 0,-126.206 L 0,-168.275 z
M -304.147,-62.4964 L -305.028,-62.4964 L -305.301,-63.3349 L -304.587,-63.8531 L -303.874,-63.3349 z
M -304.147,-146.634 L -305.028,-146.634 L -305.301,-147.472 L -304.587,-147.991 L -303.874,-147.472 z
M -256.039,-3.69666 L -256.878,-3.42421 L -257.396,-4.1375 L -256.878,-4.8508 L -256.039,-4.57834 z
M -142.053,-111.071 L -142.575,-108.617 L -143.595,-106.325 L -145.07,-104.295 L -146.934,-102.617 L -149.107,-101.362
 L -151.493,-100.587 L -153.987,-100.325 L -156.482,-100.587 L -158.868,-101.362 L -161.041,-102.617 L -162.905,-104.295
 L -164.38,-106.325 L -165.4,-108.617 L -165.922,-111.071 L -165.922,-113.579 L -165.4,-116.033 L -164.38,-118.325
 L -162.905,-120.355 L -161.041,-122.033 L -158.868,-123.288 L -156.482,-124.063 L -153.987,-124.325 L -151.493,-124.063
 L -149.107,-123.288 L -146.934,-122.033 L -145.07,-120.355 L -143.595,-118.325 L -142.575,-116.033 L -142.053,-113.579
 z
M -50.7224,-3.69666 L -51.5609,-3.42421 L -52.0792,-4.1375 L -51.5609,-4.8508 L -50.7224,-4.57834 z
M -3.94666,-62.4964 L -4.82834,-62.4964 L -5.10078,-63.3349 L -4.3875,-63.8531 L -3.67419,-63.3349 z
M -3.94666,-146.634 L -4.82834,-146.634 L -5.10078,-147.472 L -4.3875,-147.991 L -3.67419,-147.472 z
" stroke="red" fill="lightgray" stroke-width="0.5"/>
</svg>
