<?xml version="1.0" standalone="no"?>
<!DOCTYPE svg PUBLIC "-//W3C//DTD SVG 1.1//EN" "http://www.w3.org/Graphics/SVG/1.1/DTD/svg11.dtd">
<svg width="264mm" height="188mm" viewBox="-264 -188 264 188" xmlns="http://www.w3.org/2000/svg" version="1.1">
<title>OpenSCAD Model</title>
<path d="
M -19.05,-84.1375 L 0,-84.1375 L 0,-126.206 L -19.05,-126.206 L -19.05,-168.275 L 0,-168.275
 L 0,-187.325 L -263.525,-187.325 L -263.525,-168.275 L -245.475,-168.275 L -245.475,-126.206 L -263.525,-126.206
 L -263.525,-84.1375 L -245.475,-84.1375 L -245.475,-42.0687 L -263.525,-42.0687 L -263.525,-0 L -210.82,-0
 L -210.82,-8.52499 L -158.115,-8.52499 L -158.115,-0 L -105.41,-0 L -105.41,-8.52499 L -52.705,-8.52499
 L -52.705,-0 L 0,-0 L 0,-42.0687 L -19.05,-42.0687 z
M -259.692,-20.3872 L -260.633,-20.3872 L -260.923,-21.2816 L -260.163,-21.8344 L -259.402,-21.2816 z
M -259.692,-104.525 L -260.633,-104.525 L -260.923,-105.419 L -260.163,-105.972 L -259.402,-105.419 z
M -257.892,-176.753 L -258.833,-176.753 L -259.123,-177.647 L -258.362,-178.2 L -257.602,-177.647 z
M -236.525,-3.69228 L -237.42,-3.40166 L -237.972,-4.16251 L -237.42,-4.92334 L -236.525,-4.63274 z
M -131.115,-3.69228 L -132.01,-3.40166 L -132.562,-4.16251 L -132.01,-4.92334 L -131.115,-4.63274 z
M -25.7053,-3.69228 L -26.5997,-3.40166 L -27.1525,-4.16251 L -26.5997,-4.92334 L -25.7053,-4.63274 z
M -4.69226,-176.753 L -5.63272,-176.753 L -5.92334,-177.647 L -5.16249,-178.2 L -4.40164,-177.647 z
M -3.89226,-20.3872 L -4.83272,-20.3872 L -5.12334,-21.2816 L -4.36249,-21.8344 L -3.60165,-21.2816 z
M -3.89226,-104.525 L -4.83272,-104.525 L -5.12334,-105.419 L -4.36249,-105.972 L -3.60165,-105.419 z
" stroke="red" fill="lightgray" stroke-width="0.5"/>
</svg>
