<?xml version="1.0" standalone="no"?>
<!DOCTYPE svg PUBLIC "-//W3C//DTD SVG 1.1//EN" "http://www.w3.org/Graphics/SVG/1.1/DTD/svg11.dtd">
<svg width="308mm" height="179mm" viewBox="-308 -188 308 179" xmlns="http://www.w3.org/2000/svg" version="1.1">
<title>OpenSCAD Model</title>
<path d="
M -22.225,-9.52499 L -19.05,-19.05 L -9.52499,-19.05 L -9.52499,-42.0687 L 0,-42.0687 L 0,-84.1375
 L -9.52499,-84.1375 L -9.52499,-126.206 L 0,-126.206 L 0,-168.275 L -9.52499,-168.275 L -9.52499,-187.325
 L -19.05,-187.325 L -19.05,-168.275 L -288.925,-168.275 L -288.925,-187.325 L -299.45,-187.325 L -299.45,-168.275
 L -307.975,-168.275 L -307.975,-126.206 L -299.45,-126.206 L -299.45,-84.1375 L -307.975,-84.1375 L -307.975,-42.0687
 L -299.45,-42.0687 L -299.45,-19.05 L -288.925,-19.05 L -285.75,-9.52499 z
M -304.147,-62.4964 L -305.028,-62.4964 L -305.301,-63.3349 L -304.587,-63.8531 L -303.874,-63.3349 z
M -304.147,-146.634 L -305.028,-146.634 L -305.301,-147.472 L -304.587,-147.991 L -303.874,-147.472 z
M -3.94666,-62.4964 L -4.82834,-62.4964 L -5.10078,-63.3349 L -4.3875,-63.8531 L -3.67419,-63.3349 z
M -3.94666,-146.634 L -4.82834,-146.634 L -5.10078,-147.472 L -4.3875,-147.991 L -3.67419,-147.472 z
" stroke="red" fill="lightgray" stroke-width="0.5"/>
</svg>
