<?xml version="1.0" standalone="no"?>
<!DOCTYPE svg PUBLIC "-//W3C//DTD SVG 1.1//EN" "http://www.w3.org/Graphics/SVG/1.1/DTD/svg11.dtd">
<svg width="264mm" height="169mm" viewBox="-264 -188 264 169" xmlns="http://www.w3.org/2000/svg" version="1.1">
<title>OpenSCAD Model</title>
<path d="
M 0,-19.05 L 0,-42.0687 L -19.05,-42.0687 L -19.05,-84.1375 L 0,-84.1375 L 0,-126.206
 L -19.05,-126.206 L -19.05,-168.275 L 0,-168.275 L 0,-187.325 L -263.525,-187.325 L -263.525,-168.275
 L -245.475,-168.275 L -245.475,-126.206 L -263.525,-126.206 L -263.525,-84.1375 L -245.475,-84.1375 L -245.475,-42.0687
 L -263.525,-42.0687 L -263.525,-19.05 z
M -259.692,-104.525 L -260.633,-104.525 L -260.923,-105.419 L -260.163,-105.972 L -259.402,-105.419 z
M -258.692,-29.3528 L -259.633,-29.3528 L -259.923,-30.2472 L -259.162,-30.8 L -258.402,-30.2472 z
M -257.892,-176.753 L -258.833,-176.753 L -259.123,-177.647 L -258.362,-178.2 L -257.602,-177.647 z
M -4.69226,-176.753 L -5.63272,-176.753 L -5.92334,-177.647 L -5.16249,-178.2 L -4.40164,-177.647 z
M -3.89226,-104.525 L -4.83272,-104.525 L -5.12334,-105.419 L -4.36249,-105.972 L -3.60165,-105.419 z
M -3.89226,-29.3528 L -4.83272,-29.3528 L -5.12334,-30.2472 L -4.36249,-30.8 L -3.60165,-30.2472 z
" stroke="red" fill="lightgray" stroke-width="0.5"/>
</svg>
