solid OpenSCAD_Model
  facet normal 1 -0 0
    outer loop
      vertex 53.975 0 19.05
      vertex 53.975 31.75 0
      vertex 53.975 31.75 19.05
    endloop
  endfacet
  facet normal 1 0 0
    outer loop
      vertex 53.975 31.75 0
      vertex 53.975 0 19.05
      vertex 53.975 0 0
    endloop
  endfacet
  facet normal -0 0 1
    outer loop
      vertex 19.05 31.75 9.525
      vertex 44.45 0 9.525
      vertex 44.45 31.75 9.525
    endloop
  endfacet
  facet normal 0 0 1
    outer loop
      vertex 44.45 0 9.525
      vertex 19.05 31.75 9.525
      vertex 19.05 0 9.525
    endloop
  endfacet
  facet normal 0 0 -1
    outer loop
      vertex 9.525 0 0
      vertex 53.975 31.75 0
      vertex 53.975 0 0
    endloop
  endfacet
  facet normal -0 0 -1
    outer loop
      vertex 53.975 31.75 0
      vertex 9.525 0 0
      vertex 9.525 31.75 0
    endloop
  endfacet
  facet normal -1 0 0
    outer loop
      vertex 9.525 0 0
      vertex 9.525 31.75 19.05
      vertex 9.525 31.75 0
    endloop
  endfacet
  facet normal -1 -0 0
    outer loop
      vertex 9.525 31.75 19.05
      vertex 9.525 0 0
      vertex 9.525 0 19.05
    endloop
  endfacet
  facet normal 0 1 0
    outer loop
      vertex 53.975 31.75 19.05
      vertex 63.5 31.75 23.8125
      vertex 63.5 31.75 19.05
    endloop
  endfacet
  facet normal 0 1 0
    outer loop
      vertex 63.5 31.75 23.8125
      vertex 53.975 31.75 19.05
      vertex 44.45 31.75 23.8125
    endloop
  endfacet
  facet normal 0 1 0
    outer loop
      vertex 53.975 31.75 19.05
      vertex 44.45 31.75 9.525
      vertex 44.45 31.75 23.8125
    endloop
  endfacet
  facet normal 0 1 0
    outer loop
      vertex 44.45 31.75 9.525
      vertex 53.975 31.75 0
      vertex 19.05 31.75 9.525
    endloop
  endfacet
  facet normal 0 1 -0
    outer loop
      vertex 53.975 31.75 0
      vertex 44.45 31.75 9.525
      vertex 53.975 31.75 19.05
    endloop
  endfacet
  facet normal 0 1 0
    outer loop
      vertex 19.05 31.75 23.8125
      vertex 9.525 31.75 19.05
      vertex 0 31.75 23.8125
    endloop
  endfacet
  facet normal 0 1 -0
    outer loop
      vertex 19.05 31.75 9.525
      vertex 9.525 31.75 19.05
      vertex 19.05 31.75 23.8125
    endloop
  endfacet
  facet normal 0 1 0
    outer loop
      vertex 19.05 31.75 9.525
      vertex 9.525 31.75 0
      vertex 9.525 31.75 19.05
    endloop
  endfacet
  facet normal 0 1 0
    outer loop
      vertex 9.525 31.75 0
      vertex 19.05 31.75 9.525
      vertex 53.975 31.75 0
    endloop
  endfacet
  facet normal 0 1 0
    outer loop
      vertex 0 31.75 23.8125
      vertex 9.525 31.75 19.05
      vertex 0 31.75 19.05
    endloop
  endfacet
  facet normal 0 -1 0
    outer loop
      vertex 9.525 0 19.05
      vertex 0 0 23.8125
      vertex 0 0 19.05
    endloop
  endfacet
  facet normal 0 -1 0
    outer loop
      vertex 0 0 23.8125
      vertex 9.525 0 19.05
      vertex 19.05 0 23.8125
    endloop
  endfacet
  facet normal 0 -1 0
    outer loop
      vertex 9.525 0 19.05
      vertex 19.05 0 9.525
      vertex 19.05 0 23.8125
    endloop
  endfacet
  facet normal 0 -1 -0
    outer loop
      vertex 19.05 0 9.525
      vertex 9.525 0 0
      vertex 44.45 0 9.525
    endloop
  endfacet
  facet normal 0 -1 0
    outer loop
      vertex 9.525 0 0
      vertex 19.05 0 9.525
      vertex 9.525 0 19.05
    endloop
  endfacet
  facet normal 0 -1 0
    outer loop
      vertex 44.45 0 23.8125
      vertex 53.975 0 19.05
      vertex 63.5 0 23.8125
    endloop
  endfacet
  facet normal 0 -1 0
    outer loop
      vertex 44.45 0 9.525
      vertex 53.975 0 19.05
      vertex 44.45 0 23.8125
    endloop
  endfacet
  facet normal 0 -1 0
    outer loop
      vertex 44.45 0 9.525
      vertex 53.975 0 0
      vertex 53.975 0 19.05
    endloop
  endfacet
  facet normal 0 -1 0
    outer loop
      vertex 53.975 0 0
      vertex 44.45 0 9.525
      vertex 9.525 0 0
    endloop
  endfacet
  facet normal 0 -1 -0
    outer loop
      vertex 63.5 0 23.8125
      vertex 53.975 0 19.05
      vertex 63.5 0 19.05
    endloop
  endfacet
  facet normal 1 -0 0
    outer loop
      vertex 19.05 0 23.8125
      vertex 19.05 31.75 9.525
      vertex 19.05 31.75 23.8125
    endloop
  endfacet
  facet normal 1 0 0
    outer loop
      vertex 19.05 31.75 9.525
      vertex 19.05 0 23.8125
      vertex 19.05 0 9.525
    endloop
  endfacet
  facet normal -0 0 1
    outer loop
      vertex 0 31.75 23.8125
      vertex 19.05 0 23.8125
      vertex 19.05 31.75 23.8125
    endloop
  endfacet
  facet normal 0 0 1
    outer loop
      vertex 19.05 0 23.8125
      vertex 0 31.75 23.8125
      vertex 0 0 23.8125
    endloop
  endfacet
  facet normal 0 0 -1
    outer loop
      vertex 0 0 19.05
      vertex 9.525 31.75 19.05
      vertex 9.525 0 19.05
    endloop
  endfacet
  facet normal -0 0 -1
    outer loop
      vertex 9.525 31.75 19.05
      vertex 0 0 19.05
      vertex 0 31.75 19.05
    endloop
  endfacet
  facet normal -1 0 0
    outer loop
      vertex 0 0 19.05
      vertex 0 31.75 23.8125
      vertex 0 31.75 19.05
    endloop
  endfacet
  facet normal -1 -0 0
    outer loop
      vertex 0 31.75 23.8125
      vertex 0 0 19.05
      vertex 0 0 23.8125
    endloop
  endfacet
  facet normal 1 -0 0
    outer loop
      vertex 63.5 0 23.8125
      vertex 63.5 31.75 19.05
      vertex 63.5 31.75 23.8125
    endloop
  endfacet
  facet normal 1 0 0
    outer loop
      vertex 63.5 31.75 19.05
      vertex 63.5 0 23.8125
      vertex 63.5 0 19.05
    endloop
  endfacet
  facet normal -0 0 1
    outer loop
      vertex 44.45 31.75 23.8125
      vertex 63.5 0 23.8125
      vertex 63.5 31.75 23.8125
    endloop
  endfacet
  facet normal 0 0 1
    outer loop
      vertex 63.5 0 23.8125
      vertex 44.45 31.75 23.8125
      vertex 44.45 0 23.8125
    endloop
  endfacet
  facet normal 0 0 -1
    outer loop
      vertex 53.975 0 19.05
      vertex 63.5 31.75 19.05
      vertex 63.5 0 19.05
    endloop
  endfacet
  facet normal -0 0 -1
    outer loop
      vertex 63.5 31.75 19.05
      vertex 53.975 0 19.05
      vertex 53.975 31.75 19.05
    endloop
  endfacet
  facet normal -1 0 0
    outer loop
      vertex 44.45 0 9.525
      vertex 44.45 31.75 23.8125
      vertex 44.45 31.75 9.525
    endloop
  endfacet
  facet normal -1 -0 0
    outer loop
      vertex 44.45 31.75 23.8125
      vertex 44.45 0 9.525
      vertex 44.45 0 23.8125
    endloop
  endfacet
endsolid OpenSCAD_Model
