<?xml version="1.0" standalone="no"?>
<!DOCTYPE svg PUBLIC "-//W3C//DTD SVG 1.1//EN" "http://www.w3.org/Graphics/SVG/1.1/DTD/svg11.dtd">
<svg width="308mm" height="45mm" viewBox="-308 -45 308 45" xmlns="http://www.w3.org/2000/svg" version="1.1">
<title>OpenSCAD Model</title>
<path d="
M -299.45,-29.6333 L -307.975,-29.6333 L -307.975,-14.8167 L -299.45,-14.8167 L -299.45,-0 L -205.317,-0
 L -205.317,-9.52499 L -102.658,-9.52499 L -102.658,-0 L -9.52499,-0 L -9.52499,-14.8167 L 0,-14.8167
 L 0,-29.6333 L -9.52499,-29.6333 L -9.52499,-44.45 L -102.658,-44.45 L -102.658,-34.925 L -205.317,-34.925
 L -205.317,-44.45 L -299.45,-44.45 z
M -304.147,-21.6182 L -305.028,-21.6182 L -305.301,-22.4568 L -304.587,-22.975 L -303.874,-22.4568 z
M -256.039,-4.69666 L -256.878,-4.42421 L -257.396,-5.1375 L -256.878,-5.8508 L -256.039,-5.57834 z
M -256.039,-39.6217 L -256.878,-39.3492 L -257.396,-40.0625 L -256.878,-40.7758 L -256.039,-40.5033 z
M -50.7224,-4.69666 L -51.5609,-4.42421 L -52.0792,-5.1375 L -51.5609,-5.8508 L -50.7224,-5.57834 z
M -50.7224,-39.6217 L -51.5609,-39.3492 L -52.0792,-40.0625 L -51.5609,-40.7758 L -50.7224,-40.5033 z
M -3.94666,-21.6182 L -4.82834,-21.6182 L -5.10078,-22.4568 L -4.3875,-22.975 L -3.67419,-22.4568 z
" stroke="red" fill="lightgray" stroke-width="0.5"/>
</svg>
