<?xml version="1.0" standalone="no"?>
<!DOCTYPE svg PUBLIC "-//W3C//DTD SVG 1.1//EN" "http://www.w3.org/Graphics/SVG/1.1/DTD/svg11.dtd">
<svg width="264mm" height="45mm" viewBox="-264 -45 264 45" xmlns="http://www.w3.org/2000/svg" version="1.1">
<title>OpenSCAD Model</title>
<path d="
M 0,-14.8167 L -20.55,-14.8167 L -20.55,-29.6333 L 0,-29.6333 L 0,-44.45 L -52.705,-44.45
 L -52.705,-34.925 L -105.41,-34.925 L -105.41,-44.45 L -158.115,-44.45 L -158.115,-34.925 L -210.82,-34.925
 L -210.82,-44.45 L -263.525,-44.45 L -263.525,-29.6333 L -243.975,-29.6333 L -243.975,-14.8167 L -263.525,-14.8167
 L -263.525,-0 L -210.82,-0 L -210.82,-9.52499 L -158.115,-9.52499 L -158.115,-0 L -105.41,-0
 L -105.41,-9.52499 L -52.705,-9.52499 L -52.705,-0 L 0,-0 z
M -259.692,-6.76111 L -260.633,-6.76111 L -260.923,-7.65553 L -260.163,-8.20833 L -259.402,-7.65553 z
M -259.692,-36.3944 L -260.633,-36.3944 L -260.923,-37.2889 L -260.163,-37.8417 L -259.402,-37.2889 z
M -236.525,-39.6173 L -237.42,-39.3267 L -237.972,-40.0875 L -237.42,-40.8483 L -236.525,-40.5577 z
M -236.525,-4.69228 L -237.42,-4.40166 L -237.972,-5.16251 L -237.42,-5.92334 L -236.525,-5.63274 z
M -131.115,-4.69228 L -132.01,-4.40166 L -132.562,-5.16251 L -132.01,-5.92334 L -131.115,-5.63274 z
M -131.115,-39.6173 L -132.01,-39.3267 L -132.562,-40.0875 L -132.01,-40.8483 L -131.115,-40.5577 z
M -25.7053,-4.69228 L -26.5997,-4.40166 L -27.1525,-5.16251 L -26.5997,-5.92334 L -25.7053,-5.63274 z
M -25.7053,-39.6173 L -26.5997,-39.3267 L -27.1525,-40.0875 L -26.5997,-40.8483 L -25.7053,-40.5577 z
M -3.89226,-36.3944 L -4.83272,-36.3944 L -5.12334,-37.2889 L -4.36249,-37.8417 L -3.60165,-37.2889 z
M -3.89226,-6.76111 L -4.83272,-6.76111 L -5.12334,-7.65553 L -4.36249,-8.20833 L -3.60165,-7.65553 z
" stroke="red" fill="lightgray" stroke-width="0.5"/>
</svg>
