<?xml version="1.0" standalone="no"?>
<!DOCTYPE svg PUBLIC "-//W3C//DTD SVG 1.1//EN" "http://www.w3.org/Graphics/SVG/1.1/DTD/svg11.dtd">
<svg width="211mm" height="176mm" viewBox="15 -176 211 176" xmlns="http://www.w3.org/2000/svg" version="1.1">
<title>OpenSCAD Model</title>
<path d="
M 215.9,-153.175 L 225.425,-153.175 L 225.425,-172.225 L 215.9,-172.225 L 215.9,-175.4 L 25.4,-175.4
 L 25.4,-172.225 L 15.875,-172.225 L 15.875,-153.175 L 25.4,-153.175 L 25.4,-150 L 215.9,-150
 z
M 220.096,-162.289 L 220.096,-163.111 L 220.879,-163.366 L 221.362,-162.7 L 220.879,-162.034 z
M 20.0712,-162.289 L 20.0712,-163.111 L 20.8538,-163.366 L 21.3375,-162.7 L 20.8538,-162.034 z
M 215.9,-123.175 L 225.425,-123.175 L 225.425,-142.225 L 215.9,-142.225 L 215.9,-145.4 L 25.4,-145.4
 L 25.4,-142.225 L 15.875,-142.225 L 15.875,-123.175 L 25.4,-123.175 L 25.4,-120 L 215.9,-120
 z
M 220.096,-132.289 L 220.096,-133.111 L 220.879,-133.366 L 221.362,-132.7 L 220.879,-132.034 z
M 20.0712,-132.289 L 20.0712,-133.111 L 20.8538,-133.366 L 21.3375,-132.7 L 20.8538,-132.034 z
M 215.9,-93.175 L 225.425,-93.175 L 225.425,-112.225 L 215.9,-112.225 L 215.9,-115.4 L 25.4,-115.4
 L 25.4,-112.225 L 15.875,-112.225 L 15.875,-93.175 L 25.4,-93.175 L 25.4,-90 L 215.9,-90
 z
M 20.0712,-102.289 L 20.0712,-103.111 L 20.8538,-103.366 L 21.3375,-102.7 L 20.8538,-102.034 z
M 220.096,-102.289 L 220.096,-103.111 L 220.879,-103.366 L 221.362,-102.7 L 220.879,-102.034 z
M 215.9,-63.175 L 225.425,-63.175 L 225.425,-82.225 L 215.9,-82.225 L 215.9,-85.4 L 25.4,-85.4
 L 25.4,-82.225 L 15.875,-82.225 L 15.875,-63.175 L 25.4,-63.175 L 25.4,-60 L 215.9,-60
 z
M 20.0712,-72.2885 L 20.0712,-73.1114 L 20.8538,-73.3657 L 21.3375,-72.7 L 20.8538,-72.0343 z
M 220.096,-72.2885 L 220.096,-73.1114 L 220.879,-73.3657 L 221.362,-72.7 L 220.879,-72.0343 z
M 215.9,-33.175 L 225.425,-33.175 L 225.425,-52.225 L 215.9,-52.225 L 215.9,-55.4 L 25.4,-55.4
 L 25.4,-52.225 L 15.875,-52.225 L 15.875,-33.175 L 25.4,-33.175 L 25.4,-30 L 215.9,-30
 z
M 220.096,-42.2885 L 220.096,-43.1114 L 220.879,-43.3657 L 221.362,-42.7 L 220.879,-42.0343 z
M 20.0712,-42.2885 L 20.0712,-43.1114 L 20.8538,-43.3657 L 21.3375,-42.7 L 20.8538,-42.0343 z
M 215.9,-3.17499 L 225.425,-3.17499 L 225.425,-22.225 L 215.9,-22.225 L 215.9,-25.4 L 25.4,-25.4
 L 25.4,-22.225 L 15.875,-22.225 L 15.875,-3.17499 L 25.4,-3.17499 L 25.4,-0 L 215.9,-0
 z
M 220.096,-12.2885 L 220.096,-13.1114 L 220.879,-13.3657 L 221.362,-12.7 L 220.879,-12.0343 z
M 20.0712,-12.2885 L 20.0712,-13.1114 L 20.8538,-13.3657 L 21.3375,-12.7 L 20.8538,-12.0343 z
" stroke="black" fill="lightgray" stroke-width="0.5"/>
</svg>
