<?xml version="1.0" encoding="UTF-8" standalone="no"?>
<svg
   xmlns:dc="http://purl.org/dc/elements/1.1/"
   xmlns:cc="http://creativecommons.org/ns#"
   xmlns:rdf="http://www.w3.org/1999/02/22-rdf-syntax-ns#"
   xmlns:svg="http://www.w3.org/2000/svg"
   xmlns="http://www.w3.org/2000/svg"
   xmlns:sodipodi="http://sodipodi.sourceforge.net/DTD/sodipodi-0.dtd"
   xmlns:inkscape="http://www.inkscape.org/namespaces/inkscape"
   width="242mm"
   height="203mm"
   viewBox="0 -176 242 203"
   version="1.1"
   id="svg4080"
   sodipodi:docname="7MiniFrameTops.svg"
   inkscape:version="0.92.5 (2060ec1f9f, 2020-04-08)">
  <metadata
     id="metadata4086">
    <rdf:RDF>
      <cc:Work
         rdf:about="">
        <dc:format>image/svg+xml</dc:format>
        <dc:type
           rdf:resource="http://purl.org/dc/dcmitype/StillImage" />
        <dc:title>OpenSCAD Model</dc:title>
      </cc:Work>
    </rdf:RDF>
  </metadata>
  <defs
     id="defs4084" />
  <sodipodi:namedview
     pagecolor="#ffffff"
     bordercolor="#666666"
     borderopacity="1"
     objecttolerance="10"
     gridtolerance="10"
     guidetolerance="10"
     inkscape:pageopacity="0"
     inkscape:pageshadow="2"
     inkscape:window-width="1762"
     inkscape:window-height="983"
     id="namedview4082"
     showgrid="false"
     inkscape:zoom="2.0069512"
     inkscape:cx="393.61418"
     inkscape:cy="153.52626"
     inkscape:window-x="72"
     inkscape:window-y="27"
     inkscape:window-maximized="0"
     inkscape:current-layer="svg4080" />
  <title
     id="title4076">OpenSCAD Model</title>
  <path
     d="m -0.02288156,-149.62203 v 25.4 H 15.852119 v -1.587 h 9.525 v 1.587 H 215.87712 v -1.587 h 9.525 v 1.587 h 15.875 v -25.4 m -15.875,0 v 1.588 m 0,0 h -9.525 m 0,0 v -1.588 m -190.500001,0 v 1.588 m 0,0 h -9.525 m 0,0 v -1.588 m 204.383001,12.994 v -0.588 l 0.559,-0.182 0.345,0.476 -0.345,0.476 z m -200.025001,0 v -0.588 l 0.559,-0.182 0.3455,0.476 -0.3455,0.476 z m 49.617003,0.103 v -0.794 H 171.42712 v 0.794 z"
     id="path4078-6"
     inkscape:connector-curvature="0"
     style="fill:#d3d3d3;stroke:#ff0000;stroke-width:0.5"
     sodipodi:nodetypes="ccccccccccccccccccccccccccccccccccccccccc" />
  <path
     d="m 15.852119,-151.20903 h 9.525 v 1.587 H 215.87711 v -1.587 h 9.525 v 1.587 h 15.875 v -25.4 h -15.875 v 1.588 h -9.525 v -1.588 H 25.377119 v 1.588 h -9.525 v -1.588 H -0.02288066 v 25.4 H 15.852119 Z m 204.382991,-10.819 v -0.588 l 0.559,-0.182 0.345,0.476 -0.345,0.476 z m -200.024991,0 v -0.588 l 0.559,-0.182 0.3455,0.476 -0.3455,0.476 z m 49.616999,0.103 v -0.794 m 0,0 H 171.42711 m 0,0 v 0.794 m 0,0 H 69.827118"
     id="path4078-7"
     inkscape:connector-curvature="0"
     style="fill:#d3d3d3;stroke:#ff0000;stroke-width:0.5"
     sodipodi:nodetypes="ccccccccccccccccccccccccccccccccccccccccc" />
  <path
     sodipodi:nodetypes="ccccccccccccccccccccccccccccccccccccccccc"
     style="fill:#d3d3d3;stroke:#ff0000;stroke-width:0.5"
     inkscape:connector-curvature="0"
     id="path4117"
     d="m -0.02288156,-124.22203 v 25.399995 H 15.852119 v -1.586995 h 9.525 v 1.586995 H 215.87712 v -1.586995 h 9.525 v 1.586995 h 15.875 v -25.399995 m -15.875,0 v 1.588 m 0,0 h -9.525 m 0,0 v -1.588 m -190.500001,0 v 1.588 m 0,0 h -9.525 m 0,0 v -1.588 m 204.383001,12.994 v -0.588 l 0.559,-0.182 0.345,0.476 -0.345,0.476 z m -200.025001,0 v -0.588 l 0.559,-0.182 0.3455,0.476 -0.3455,0.476 z m 49.617003,0.103 v -0.794 H 171.42712 v 0.794 z" />
  <path
     d="m -0.02288156,-98.822035 v 25.4 H 15.852119 v -1.587 h 9.525 v 1.587 H 215.87712 v -1.587 h 9.525 v 1.587 h 15.875 v -25.4 m -15.875,0 v 1.588 m 0,0 h -9.525 m 0,0 v -1.588 m -190.500001,0 v 1.588 m 0,0 h -9.525 m 0,0 v -1.588 m 204.383001,12.994 v -0.588 l 0.559,-0.182 0.345,0.476 -0.345,0.476 z m -200.025001,0 v -0.588 l 0.559,-0.182 0.3455,0.476 -0.3455,0.476 z m 49.617003,0.103 v -0.794 H 171.42712 v 0.794 z"
     id="path4119"
     inkscape:connector-curvature="0"
     style="fill:#d3d3d3;stroke:#ff0000;stroke-width:0.5"
     sodipodi:nodetypes="ccccccccccccccccccccccccccccccccccccccccc" />
  <path
     sodipodi:nodetypes="ccccccccccccccccccccccccccccccccccccccccc"
     style="fill:#d3d3d3;stroke:#ff0000;stroke-width:0.5"
     inkscape:connector-curvature="0"
     id="path4121"
     d="m -0.02288156,-73.422035 v 25.4 H 15.852119 v -1.587 h 9.525 v 1.587 H 215.87712 v -1.587 h 9.525 v 1.587 h 15.875 v -25.4 m -15.875,0 v 1.588 m 0,0 h -9.525 m 0,0 v -1.588 m -190.500001,0 v 1.588 m 0,0 h -9.525 m 0,0 v -1.588 m 204.383001,12.994 v -0.588 l 0.559,-0.182 0.345,0.476 -0.345,0.476 z m -200.025001,0 v -0.588 l 0.559,-0.182 0.3455,0.476 -0.3455,0.476 z m 49.617003,0.103 v -0.794 H 171.42712 v 0.794 z" />
  <path
     d="m -0.02288156,-48.022035 v 25.4 H 15.852119 v -1.587 h 9.525 v 1.587 H 215.87712 v -1.587 h 9.525 v 1.587 h 15.875 v -25.4 m -15.875,0 v 1.588 m 0,0 h -9.525 m 0,0 v -1.588 m -190.500001,0 v 1.588 m 0,0 h -9.525 m 0,0 v -1.588 m 204.383001,12.994 v -0.588 l 0.559,-0.182 0.345,0.476 -0.345,0.476 z m -200.025001,0 v -0.588 l 0.559,-0.182 0.3455,0.476 -0.3455,0.476 z m 49.617003,0.103 v -0.794 H 171.42712 v 0.794 z"
     id="path4123"
     inkscape:connector-curvature="0"
     style="fill:#d3d3d3;stroke:#ff0000;stroke-width:0.5"
     sodipodi:nodetypes="ccccccccccccccccccccccccccccccccccccccccc" />
  <path
     sodipodi:nodetypes="ccccccccccccccccccccccccccccccccccccccccc"
     style="fill:#d3d3d3;stroke:#ff0000;stroke-width:0.5"
     inkscape:connector-curvature="0"
     id="path4125"
     d="M -0.02288156,-22.622035 V 2.7779651 H 15.852119 v -1.587 h 9.525 v 1.587 H 215.87712 v -1.587 h 9.525 v 1.587 h 15.875 V -22.622035 m -15.875,0 v 1.588 m 0,0 h -9.525 m 0,0 v -1.588 m -190.500001,0 v 1.588 m 0,0 h -9.525 m 0,0 v -1.588 M 220.23512,-9.6280349 v -0.5880001 l 0.559,-0.182 0.345,0.4760001 -0.345,0.476 z m -200.025001,0 v -0.5880001 l 0.559,-0.182 0.3455,0.4760001 -0.3455,0.476 z m 49.617003,0.103 V -10.319035 H 171.42712 v 0.7940001 z" />
</svg>
