<?xml version="1.0" standalone="no"?>
<!DOCTYPE svg PUBLIC "-//W3C//DTD SVG 1.1//EN" "http://www.w3.org/Graphics/SVG/1.1/DTD/svg11.dtd">
<svg width="242mm" height="176mm" viewBox="0 -176 242 176" xmlns="http://www.w3.org/2000/svg" version="1.1">
<title>OpenSCAD Model</title>
<path d="
M 15.875,-151.587 L 25.4,-151.587 L 25.4,-150 L 215.9,-150 L 215.9,-151.587 L 225.425,-151.587
 L 225.425,-150 L 241.3,-150 L 241.3,-175.4 L 225.425,-175.4 L 225.425,-173.812 L 215.9,-173.812
 L 215.9,-175.4 L 25.4,-175.4 L 25.4,-173.812 L 15.875,-173.812 L 15.875,-175.4 L 0,-175.4
 L 0,-150 L 15.875,-150 z
M 220.015,-162.23 L 220.015,-163.17 L 220.91,-163.461 L 221.462,-162.7 L 220.91,-161.939 z
M 19.9903,-162.23 L 19.9903,-163.17 L 20.8847,-163.461 L 21.4375,-162.7 L 20.8847,-161.939 z
M 69.85,-162.05 L 69.85,-163.35 L 171.45,-163.35 L 171.45,-162.05 z
M 15.875,-121.587 L 25.4,-121.587 L 25.4,-120 L 215.9,-120 L 215.9,-121.587 L 225.425,-121.587
 L 225.425,-120 L 241.3,-120 L 241.3,-145.4 L 225.425,-145.4 L 225.425,-143.812 L 215.9,-143.812
 L 215.9,-145.4 L 25.4,-145.4 L 25.4,-143.812 L 15.875,-143.812 L 15.875,-145.4 L 0,-145.4
 L 0,-120 L 15.875,-120 z
M 220.015,-132.23 L 220.015,-133.17 L 220.91,-133.461 L 221.462,-132.7 L 220.91,-131.939 z
M 19.9903,-132.23 L 19.9903,-133.17 L 20.8847,-133.461 L 21.4375,-132.7 L 20.8847,-131.939 z
M 69.85,-132.05 L 69.85,-133.35 L 171.45,-133.35 L 171.45,-132.05 z
M 15.875,-91.5875 L 25.4,-91.5875 L 25.4,-90 L 215.9,-90 L 215.9,-91.5875 L 225.425,-91.5875
 L 225.425,-90 L 241.3,-90 L 241.3,-115.4 L 225.425,-115.4 L 225.425,-113.812 L 215.9,-113.812
 L 215.9,-115.4 L 25.4,-115.4 L 25.4,-113.812 L 15.875,-113.812 L 15.875,-115.4 L 0,-115.4
 L 0,-90 L 15.875,-90 z
M 220.015,-102.23 L 220.015,-103.17 L 220.91,-103.461 L 221.462,-102.7 L 220.91,-101.939 z
M 19.9903,-102.23 L 19.9903,-103.17 L 20.8847,-103.461 L 21.4375,-102.7 L 20.8847,-101.939 z
M 69.85,-102.05 L 69.85,-103.35 L 171.45,-103.35 L 171.45,-102.05 z
M 15.875,-61.5875 L 25.4,-61.5875 L 25.4,-60 L 215.9,-60 L 215.9,-61.5875 L 225.425,-61.5875
 L 225.425,-60 L 241.3,-60 L 241.3,-85.4 L 225.425,-85.4 L 225.425,-83.8125 L 215.9,-83.8125
 L 215.9,-85.4 L 25.4,-85.4 L 25.4,-83.8125 L 15.875,-83.8125 L 15.875,-85.4 L 0,-85.4
 L 0,-60 L 15.875,-60 z
M 220.015,-72.2298 L 220.015,-73.1702 L 220.91,-73.4608 L 221.462,-72.7 L 220.91,-71.9391 z
M 19.9903,-72.2298 L 19.9903,-73.1702 L 20.8847,-73.4608 L 21.4375,-72.7 L 20.8847,-71.9391 z
M 69.85,-72.05 L 69.85,-73.35 L 171.45,-73.35 L 171.45,-72.05 z
M 15.875,-31.5875 L 25.4,-31.5875 L 25.4,-30 L 215.9,-30 L 215.9,-31.5875 L 225.425,-31.5875
 L 225.425,-30 L 241.3,-30 L 241.3,-55.4 L 225.425,-55.4 L 225.425,-53.8125 L 215.9,-53.8125
 L 215.9,-55.4 L 25.4,-55.4 L 25.4,-53.8125 L 15.875,-53.8125 L 15.875,-55.4 L 0,-55.4
 L 0,-30 L 15.875,-30 z
M 220.015,-42.2298 L 220.015,-43.1702 L 220.91,-43.4608 L 221.462,-42.7 L 220.91,-41.9391 z
M 19.9903,-42.2298 L 19.9903,-43.1702 L 20.8847,-43.4608 L 21.4375,-42.7 L 20.8847,-41.9391 z
M 69.85,-42.05 L 69.85,-43.35 L 171.45,-43.35 L 171.45,-42.05 z
M 15.875,-1.58749 L 25.4,-1.58749 L 25.4,-0 L 215.9,-0 L 215.9,-1.58749 L 225.425,-1.58749
 L 225.425,-0 L 241.3,-0 L 241.3,-25.4 L 225.425,-25.4 L 225.425,-23.8125 L 215.9,-23.8125
 L 215.9,-25.4 L 25.4,-25.4 L 25.4,-23.8125 L 15.875,-23.8125 L 15.875,-25.4 L 0,-25.4
 L 0,-0 L 15.875,-0 z
M 220.015,-12.2298 L 220.015,-13.1702 L 220.91,-13.4608 L 221.462,-12.7 L 220.91,-11.9391 z
M 19.9903,-12.2298 L 19.9903,-13.1702 L 20.8847,-13.4608 L 21.4375,-12.7 L 20.8847,-11.9391 z
M 69.85,-12.05 L 69.85,-13.35 L 171.45,-13.35 L 171.45,-12.05 z
" stroke="red" fill="lightgray" stroke-width="0.5"/>
</svg>
