<?xml version="1.0" standalone="no"?>
<!DOCTYPE svg PUBLIC "-//W3C//DTD SVG 1.1//EN" "http://www.w3.org/Graphics/SVG/1.1/DTD/svg11.dtd">
<svg width="211mm" height="176mm" viewBox="15 -176 211 176" xmlns="http://www.w3.org/2000/svg" version="1.1">
<title>OpenSCAD Model</title>
<path d="
M 215.9,-153.175 L 225.425,-153.175 L 225.425,-172.225 L 215.9,-172.225 L 215.9,-175.4 L 25.4,-175.4
 L 25.4,-172.225 L 15.875,-172.225 L 15.875,-153.175 L 25.4,-153.175 L 25.4,-150 L 215.9,-150
 z
M 220.015,-162.23 L 220.015,-163.17 L 220.91,-163.461 L 221.462,-162.7 L 220.91,-161.939 z
M 19.9903,-162.23 L 19.9903,-163.17 L 20.8847,-163.461 L 21.4375,-162.7 L 20.8847,-161.939 z
M 215.9,-123.175 L 225.425,-123.175 L 225.425,-142.225 L 215.9,-142.225 L 215.9,-145.4 L 25.4,-145.4
 L 25.4,-142.225 L 15.875,-142.225 L 15.875,-123.175 L 25.4,-123.175 L 25.4,-120 L 215.9,-120
 z
M 220.015,-132.23 L 220.015,-133.17 L 220.91,-133.461 L 221.462,-132.7 L 220.91,-131.939 z
M 19.9903,-132.23 L 19.9903,-133.17 L 20.8847,-133.461 L 21.4375,-132.7 L 20.8847,-131.939 z
M 215.9,-93.175 L 225.425,-93.175 L 225.425,-112.225 L 215.9,-112.225 L 215.9,-115.4 L 25.4,-115.4
 L 25.4,-112.225 L 15.875,-112.225 L 15.875,-93.175 L 25.4,-93.175 L 25.4,-90 L 215.9,-90
 z
M 19.9903,-102.23 L 19.9903,-103.17 L 20.8847,-103.461 L 21.4375,-102.7 L 20.8847,-101.939 z
M 220.015,-102.23 L 220.015,-103.17 L 220.91,-103.461 L 221.462,-102.7 L 220.91,-101.939 z
M 215.9,-63.175 L 225.425,-63.175 L 225.425,-82.225 L 215.9,-82.225 L 215.9,-85.4 L 25.4,-85.4
 L 25.4,-82.225 L 15.875,-82.225 L 15.875,-63.175 L 25.4,-63.175 L 25.4,-60 L 215.9,-60
 z
M 19.9903,-72.2298 L 19.9903,-73.1702 L 20.8847,-73.4608 L 21.4375,-72.7 L 20.8847,-71.9391 z
M 220.015,-72.2298 L 220.015,-73.1702 L 220.91,-73.4608 L 221.462,-72.7 L 220.91,-71.9391 z
M 215.9,-33.175 L 225.425,-33.175 L 225.425,-52.225 L 215.9,-52.225 L 215.9,-55.4 L 25.4,-55.4
 L 25.4,-52.225 L 15.875,-52.225 L 15.875,-33.175 L 25.4,-33.175 L 25.4,-30 L 215.9,-30
 z
M 220.015,-42.2298 L 220.015,-43.1702 L 220.91,-43.4608 L 221.462,-42.7 L 220.91,-41.9391 z
M 19.9903,-42.2298 L 19.9903,-43.1702 L 20.8847,-43.4608 L 21.4375,-42.7 L 20.8847,-41.9391 z
M 215.9,-3.17499 L 225.425,-3.17499 L 225.425,-22.225 L 215.9,-22.225 L 215.9,-25.4 L 25.4,-25.4
 L 25.4,-22.225 L 15.875,-22.225 L 15.875,-3.17499 L 25.4,-3.17499 L 25.4,-0 L 215.9,-0
 z
M 220.015,-12.2298 L 220.015,-13.1702 L 220.91,-13.4608 L 221.462,-12.7 L 220.91,-11.9391 z
M 19.9903,-12.2298 L 19.9903,-13.1702 L 20.8847,-13.4608 L 21.4375,-12.7 L 20.8847,-11.9391 z
" stroke="red" fill="lightgray" stroke-width="0.5"/>
</svg>
